<?xml version="1.0"?>
<svg xmlns="http://www.w3.org/2000/svg" viewBox="0 0 64 64" width="512" height="512"><g id="admin"><path d="M6,50a3,3,0,0,0,0,6H26a3,3,0,0,0,0-6V49a5,5,0,0,0-5-5,5.466,5.466,0,0,0-3,1,5.854,5.854,0,0,0-5-3,5.984,5.984,0,0,0-5.65,8Z" style="fill:#e0e0e2"/><path d="M58,37a3,3,0,0,1,0,6H38a3,3,0,0,1,0-6V36a5,5,0,0,1,5-5,5.466,5.466,0,0,1,3,1,5.854,5.854,0,0,1,5-3,5.984,5.984,0,0,1,5.65,8Z" style="fill:#c0ab91"/><path d="M61,40a3,3,0,0,1-3,3H54a3,3,0,0,0,0-6H52.65a5.968,5.968,0,0,0-3.6-7.63A5.207,5.207,0,0,1,51,29a5.984,5.984,0,0,1,5.65,8H58A3,3,0,0,1,61,40Z" style="fill:#b39a7c"/><path d="M44,3V9a5.985,5.985,0,0,1-3,5.19V13l-5.64-1.54A5.463,5.463,0,0,1,34,13c-2,1.55-4.85,1.47-5,1-.07-.22.48-.44,1-1a5.27,5.27,0,0,0,1-3H30l-7,3v2a3,3,0,0,1-3-3V9a6,6,0,0,1,6-6Z" style="fill:#ffde55"/><path d="M44,3V9a5.985,5.985,0,0,1-3,5.19V13l-2.09-.57A5.885,5.885,0,0,0,40,9V3Z" style="fill:#ffcd00"/><path d="M41,13v8a9,9,0,0,1-18,0V13l7-3h1a5.27,5.27,0,0,1-1,3c-.52.56-1.07.78-1,1,.15.47,3,.55,5-1a5.463,5.463,0,0,0,1.36-1.54Z" style="fill:#ffdaaa"/><path d="M41,13v8a9,9,0,0,1-9,9,9.356,9.356,0,0,1-2-.22A9.008,9.008,0,0,0,37,21V13l-2.32-.63a5.377,5.377,0,0,0,.68-.91Z" style="fill:#ffc477"/><path d="M44,18v1a2.006,2.006,0,0,1-2,2H41V16h1A2.006,2.006,0,0,1,44,18Z" style="fill:#ffdaaa"/><path d="M23,16v5H22a2.006,2.006,0,0,1-2-2V18a2.006,2.006,0,0,1,2-2Z" style="fill:#ffdaaa"/><circle cx="32" cy="46" r="15" style="fill:#57a4ff"/><path d="M47,46a15,15,0,0,1-27.42,8.42A15.007,15.007,0,0,0,40.42,33.58,15.016,15.016,0,0,1,47,46Z" style="fill:#2488ff"/><path d="M58,36h-.08A6.74,6.74,0,0,0,58,35a7.008,7.008,0,0,0-7-7,6.626,6.626,0,0,0-5.29,2.67A6.262,6.262,0,0,0,43,30a5.987,5.987,0,0,0-4.07,1.6,15.371,15.371,0,0,0-2.1-.85A10.01,10.01,0,0,0,42,22a3.009,3.009,0,0,0,3-3V18a3.009,3.009,0,0,0-3-3v-.28A6.981,6.981,0,0,0,45,9V3a1,1,0,0,0-1-1H26a7.008,7.008,0,0,0-7,7v3a4.008,4.008,0,0,0,1.73,3.29A3,3,0,0,0,19,18v1a3.009,3.009,0,0,0,3,3,10.01,10.01,0,0,0,5.17,8.75,16.066,16.066,0,0,0-10.66,11.3A6.42,6.42,0,0,0,13,41a7.008,7.008,0,0,0-7,7,6.74,6.74,0,0,0,.08,1H6a4,4,0,0,0,0,8H20.41A15.98,15.98,0,0,0,48,46a16.515,16.515,0,0,0-.14-2H58a4,4,0,0,0,0-8ZM40.63,35a13.562,13.562,0,0,1-1.54,1.06,14.094,14.094,0,0,0-1.75-2.99A13.869,13.869,0,0,1,40.63,35ZM33,45V39.95a15.549,15.549,0,0,0,4.97-1.11,24.274,24.274,0,0,1,1,6.16Zm5.97,2a24.274,24.274,0,0,1-1,6.16A15.549,15.549,0,0,0,33,52.05V47ZM37.29,36.96a13.9,13.9,0,0,1-4.29.99V32.17C34.69,32.68,36.2,34.44,37.29,36.96ZM43,18v1a1,1,0,0,1-1,1V17A1,1,0,0,1,43,18ZM22,20a1,1,0,0,1-1-1V18a1,1,0,0,1,1-1Zm0-7v.72A2,2,0,0,1,21,12V9a5,5,0,0,1,5-5H43V9a4.971,4.971,0,0,1-1.28,3.32.942.942,0,0,0-.46-.28L35.62,10.5a.983.983,0,0,0-1.11.44,4.643,4.643,0,0,1-1.12,1.27,5.479,5.479,0,0,1-2.28.99A7.362,7.362,0,0,0,32,10.09,1,1,0,0,0,31,9H30a1.006,1.006,0,0,0-.39.08l-7,3A1,1,0,0,0,22,13Zm4.66,20.07a14.094,14.094,0,0,0-1.75,2.99A13.562,13.562,0,0,1,23.37,35,13.869,13.869,0,0,1,26.66,33.07Zm-4.78,3.29a16.344,16.344,0,0,0,2.31,1.59A25.732,25.732,0,0,0,23.03,45H18.05A13.924,13.924,0,0,1,21.88,36.36ZM6,55a2,2,0,0,1,0-4H7.35a1.028,1.028,0,0,0,.82-.42,1.01,1.01,0,0,0,.12-.91A5.2,5.2,0,0,1,8,48a5,5,0,0,1,5-5,4.532,4.532,0,0,1,3.1,1.27A16.562,16.562,0,0,0,16,46a15.924,15.924,0,0,0,2.78,9Zm12.05-8h4.98a25.732,25.732,0,0,0,1.16,7.05,16.344,16.344,0,0,0-2.31,1.59A13.924,13.924,0,0,1,18.05,47Zm5.32,10a13.562,13.562,0,0,1,1.54-1.06,14.094,14.094,0,0,0,1.75,2.99A13.869,13.869,0,0,1,23.37,57ZM31,59.83c-1.69-.51-3.2-2.27-4.29-4.79A13.9,13.9,0,0,1,31,54.05Zm0-7.78a15.549,15.549,0,0,0-4.97,1.11,24.274,24.274,0,0,1-1-6.16H31ZM31,45H25.03a24.274,24.274,0,0,1,1-6.16A15.549,15.549,0,0,0,31,39.95Zm0-7.05a13.9,13.9,0,0,1-4.29-.99c1.09-2.52,2.6-4.28,4.29-4.79ZM24,22V13.66l5.79-2.48a2.818,2.818,0,0,1-.52,1.14,5.038,5.038,0,0,1-.52.45,1.389,1.389,0,0,0-.7,1.53,1.332,1.332,0,0,0,.95.86,7.2,7.2,0,0,0,5.6-1.36,6.336,6.336,0,0,0,1.18-1.19L40,13.76V22a8,8,0,0,1-16,0Zm9,37.83V54.05a13.9,13.9,0,0,1,4.29.99C36.2,57.56,34.69,59.32,33,59.83Zm4.34-.9a14.094,14.094,0,0,0,1.75-2.99A13.562,13.562,0,0,1,40.63,57,13.869,13.869,0,0,1,37.34,58.93Zm4.78-3.29a16.344,16.344,0,0,0-2.31-1.59A25.732,25.732,0,0,0,40.97,47h4.98A13.924,13.924,0,0,1,42.12,55.64ZM40.97,45a25.732,25.732,0,0,0-1.16-7.05,16.344,16.344,0,0,0,2.31-1.59A13.924,13.924,0,0,1,45.95,45ZM58,42H47.47a16.017,16.017,0,0,0-6.64-9.33A3.942,3.942,0,0,1,43,32a4.4,4.4,0,0,1,2.42.82,1,1,0,0,0,.79.16,1.055,1.055,0,0,0,.65-.46A4.831,4.831,0,0,1,51,30a5,5,0,0,1,5,5,5.2,5.2,0,0,1-.29,1.67,1.01,1.01,0,0,0,.12.91,1.028,1.028,0,0,0,.82.42H58a2,2,0,0,1,0,4Z"/><rect x="15" y="18" width="2" height="2"/><path d="M9,20h4V18H8a1,1,0,0,0-1,1V39H9Z"/><rect x="47" y="18" width="2" height="2"/><path d="M55,27h2V19a1,1,0,0,0-1-1H51v2h4Z"/></g></svg>
