<?xml version="1.0"?>
<svg xmlns="http://www.w3.org/2000/svg" viewBox="0 0 64 64" width="512" height="512"><g id="admin"><path d="M30,9h1a1,1,0,0,1,1,1.09,7.362,7.362,0,0,1-.89,3.11,5.479,5.479,0,0,0,2.28-.99,4.643,4.643,0,0,0,1.12-1.27.983.983,0,0,1,1.11-.44l5.64,1.54a.942.942,0,0,1,.46.28A4.971,4.971,0,0,0,43,9V4H26a5,5,0,0,0-5,5v3a2,2,0,0,0,1,1.72V13a1,1,0,0,1,.61-.92l7-3A1.006,1.006,0,0,1,30,9Z"/><path d="M23.03,47H18.05a13.924,13.924,0,0,0,3.83,8.64,16.344,16.344,0,0,1,2.31-1.59A25.732,25.732,0,0,1,23.03,47Z"/><path d="M26.66,33.07A13.869,13.869,0,0,0,23.37,35a13.562,13.562,0,0,0,1.54,1.06A14.094,14.094,0,0,1,26.66,33.07Z"/><path d="M16.1,44.27A4.532,4.532,0,0,0,13,43a5,5,0,0,0-5,5,5.2,5.2,0,0,0,.29,1.67,1.01,1.01,0,0,1-.12.91,1.028,1.028,0,0,1-.82.42H6a2,2,0,0,0,0,4H18.78A15.924,15.924,0,0,1,16,46,16.562,16.562,0,0,1,16.1,44.27Z"/><path d="M24.19,37.95a16.344,16.344,0,0,1-2.31-1.59A13.924,13.924,0,0,0,18.05,45h4.98A25.732,25.732,0,0,1,24.19,37.95Z"/><path d="M37.97,38.84A15.549,15.549,0,0,1,33,39.95V45h5.97A24.274,24.274,0,0,0,37.97,38.84Z"/><path d="M23.37,57a13.869,13.869,0,0,0,3.29,1.93,14.094,14.094,0,0,1-1.75-2.99A13.562,13.562,0,0,0,23.37,57Z"/><path d="M40.63,35a13.869,13.869,0,0,0-3.29-1.93,14.094,14.094,0,0,1,1.75,2.99A13.562,13.562,0,0,0,40.63,35Z"/><path d="M33,32.17v5.78a13.9,13.9,0,0,0,4.29-.99C36.2,34.44,34.69,32.68,33,32.17Z"/><path d="M33,52.05a15.549,15.549,0,0,1,4.97,1.11,24.274,24.274,0,0,0,1-6.16H33Z"/><path d="M37.34,58.93A13.869,13.869,0,0,0,40.63,57a13.562,13.562,0,0,0-1.54-1.06A14.094,14.094,0,0,1,37.34,58.93Z"/><path d="M33,59.83c1.69-.51,3.2-2.27,4.29-4.79A13.9,13.9,0,0,0,33,54.05Z"/><path d="M39.81,54.05a16.344,16.344,0,0,1,2.31,1.59A13.924,13.924,0,0,0,45.95,47H40.97A25.732,25.732,0,0,1,39.81,54.05Z"/><path d="M39.81,37.95A25.732,25.732,0,0,1,40.97,45h4.98a13.924,13.924,0,0,0-3.83-8.64A16.344,16.344,0,0,1,39.81,37.95Z"/><path d="M31,59.83V54.05a13.9,13.9,0,0,0-4.29.99C27.8,57.56,29.31,59.32,31,59.83Z"/><path d="M58,38H56.65a1.028,1.028,0,0,1-.82-.42,1.01,1.01,0,0,1-.12-.91A5.2,5.2,0,0,0,56,35a5,5,0,0,0-5-5,4.831,4.831,0,0,0-4.14,2.52,1.055,1.055,0,0,1-.65.46,1,1,0,0,1-.79-.16A4.4,4.4,0,0,0,43,32a3.942,3.942,0,0,0-2.17.67A16.017,16.017,0,0,1,47.47,42H58a2,2,0,0,0,0-4Z"/><path d="M40,22V13.76l-4.22-1.15A6.336,6.336,0,0,1,34.6,13.8,7.2,7.2,0,0,1,29,15.16a1.332,1.332,0,0,1-.95-.86,1.389,1.389,0,0,1,.7-1.53,5.038,5.038,0,0,0,.52-.45,2.818,2.818,0,0,0,.52-1.14L24,13.66V22a8,8,0,0,0,16,0Z"/><path d="M26.03,53.16A15.549,15.549,0,0,1,31,52.05V47H25.03A24.274,24.274,0,0,0,26.03,53.16Z"/><path d="M26.71,36.96a13.9,13.9,0,0,0,4.29.99V32.17C29.31,32.68,27.8,34.44,26.71,36.96Z"/><path d="M25.03,45H31V39.95a15.549,15.549,0,0,1-4.97-1.11A24.274,24.274,0,0,0,25.03,45Z"/><rect x="15" y="18" width="2" height="2"/><path d="M9,39H7V19a1,1,0,0,1,1-1h5v2H9Z"/><rect x="47" y="18" width="2" height="2"/><path d="M57,27H55V20H51V18h5a1,1,0,0,1,1,1Z"/><path d="M42,21h1a2,2,0,0,0,2-2V18a2,2,0,0,0-2-2H42"/><path d="M22,16H21a2,2,0,0,0-2,2v1a2,2,0,0,0,2,2h1"/></g></svg>
